# xmcd
# Copyright (C) 1995-1998 Ti Kan
#
# Track frame offsets:
#       150
#       16368
#       32517
#       49292
#       71950
#       89118
#       100756
#       114498
#       131083
#       145708
#       163238
#       178014
#
# Disc length: 2576 seconds
#
# Revision: 0
# Processed by: cddbd v1.5.2PL0 Copyright (c) Steve Scherf et al.
# Submitted via: CD-Transfer v1.0
#
DISCID=ad0a0e0c
DTITLE=M.g. Grace - ---- [CD)
DYEAR=08
DGENRE=
TTITLE0=Falling In Love Again (Radio Edit)
TTITLE1=Haeatache Tonight (Radio Edit)
TTITLE2=Midnite Moon (Radio Edit)
TTITLE3=Where Did You Go (Radio Edit)
TTITLE4=I'll Bee Always On Your Mind (Radio Edit)
TTITLE5=Something, Bout You Baby I Like (Radio Edit)
TTITLE6=I Can Go For Lovin You (Radio Edit)
TTITLE7=If Tomorrow Never Comes (Radio Edit)
TTITLE8=Wonderful Little Moments (Radio Edit)
TTITLE9=Steamy Windows (Radio Edit)
TTITLE10=Just When I Needed You Most (Radio Edit)
TTITLE11=Let Me Love You (Radio Edit)
EXTD=
EXTT0=
EXTT1=
EXTT2=
EXTT3=
EXTT4=
EXTT5=
EXTT6=
EXTT7=
EXTT8=
EXTT9=
EXTT10=
EXTT11=
PLAYORDER=
